<svg width="140" height="29" viewBox="0 0 140 29" fill="none" xmlns="http://www.w3.org/2000/svg">
<g clip-path="url(#clip0_1509_8955)">
<path d="M40.392 20.8385C39.197 20.8385 38.1566 20.5924 37.2708 20.1004C36.399 19.5942 35.7242 18.9123 35.2462 18.0547C34.7822 17.1971 34.5502 16.2269 34.5502 15.1443C34.5502 13.879 34.8033 12.8033 35.3095 11.9177C35.8297 11.0178 36.5045 10.3288 37.334 9.85083C38.1636 9.3728 39.0423 9.13379 39.9702 9.13379C40.6873 9.13379 41.3622 9.28142 41.9949 9.57671C42.6416 9.87197 43.211 10.2796 43.7031 10.7998C44.1952 11.306 44.5819 11.8965 44.863 12.5714C45.1583 13.2463 45.306 13.9633 45.306 14.7226C45.2918 15.0599 45.1583 15.3341 44.9052 15.545C44.6521 15.7559 44.3569 15.8614 44.0194 15.8614H35.9632L35.3305 13.7524H43.0704L42.6064 14.1742V13.6048C42.5784 13.1971 42.4307 12.8315 42.1636 12.5082C41.9105 12.1848 41.5871 11.9317 41.1935 11.7489C40.8138 11.5521 40.4061 11.4537 39.9702 11.4537C39.5484 11.4537 39.1548 11.5099 38.7892 11.6224C38.4237 11.7348 38.1073 11.9247 37.8402 12.1918C37.5731 12.4589 37.3622 12.8175 37.2075 13.2673C37.0529 13.7173 36.9755 14.2867 36.9755 14.9756C36.9755 15.7348 37.1301 16.3816 37.4395 16.9159C37.7628 17.436 38.1706 17.8368 38.6627 18.1179C39.1688 18.3851 39.7031 18.5187 40.2655 18.5187C40.7857 18.5187 41.2005 18.4765 41.5098 18.3922C41.8191 18.3078 42.0651 18.2093 42.248 18.0969C42.4447 17.9704 42.6205 17.8649 42.7752 17.7805C43.0282 17.654 43.2673 17.5907 43.4922 17.5907C43.8015 17.5907 44.0546 17.6961 44.2515 17.907C44.4624 18.1179 44.5678 18.364 44.5678 18.6452C44.5678 19.0249 44.371 19.3693 43.9772 19.6786C43.6117 19.9879 43.0986 20.2621 42.4377 20.5011C41.777 20.7261 41.0951 20.8385 40.392 20.8385Z" fill="#333B47"/>
<path d="M56.8367 9.13379C57.2023 9.13379 57.5046 9.2533 57.7435 9.49235C57.9826 9.73131 58.1021 10.0407 58.1021 10.4202V19.3412C58.1021 19.7068 57.9826 20.016 57.7435 20.2691C57.5046 20.5081 57.2023 20.6276 56.8367 20.6276C56.4711 20.6276 56.1688 20.5081 55.9299 20.2691C55.6908 20.016 55.5713 19.7068 55.5713 19.3412V18.3078L56.0353 18.4976C56.0353 18.6804 55.9369 18.9053 55.74 19.1724C55.5432 19.4255 55.276 19.6786 54.9386 19.9317C54.6011 20.1848 54.2005 20.4027 53.7365 20.5854C53.2866 20.7541 52.7945 20.8385 52.2602 20.8385C51.2901 20.8385 50.4114 20.5924 49.6241 20.1004C48.8367 19.5942 48.211 18.9053 47.747 18.0336C47.2972 17.1479 47.0722 16.1356 47.0722 14.9967C47.0722 13.8438 47.2972 12.8315 47.747 11.9598C48.211 11.0741 48.8297 10.3851 49.6029 9.89301C50.3762 9.38687 51.2338 9.13379 52.1758 9.13379C52.7805 9.13379 53.3358 9.22518 53.842 9.40796C54.3482 9.59074 54.784 9.82268 55.1495 10.1039C55.5291 10.3851 55.8174 10.6733 56.0142 10.9686C56.2251 11.2498 56.3305 11.4888 56.3305 11.6856L55.5713 11.9598V10.4202C55.5713 10.0547 55.6908 9.75244 55.9299 9.51339C56.1688 9.26033 56.4711 9.13379 56.8367 9.13379ZM52.5766 18.5187C53.1952 18.5187 53.7365 18.364 54.2005 18.0547C54.6645 17.7454 55.0229 17.3236 55.276 16.7893C55.5432 16.2551 55.6768 15.6575 55.6768 14.9967C55.6768 14.3218 55.5432 13.7173 55.276 13.183C55.0229 12.6487 54.6645 12.2269 54.2005 11.9177C53.7365 11.6083 53.1952 11.4537 52.5766 11.4537C51.972 11.4537 51.4377 11.6083 50.9738 11.9177C50.5098 12.2269 50.1443 12.6487 49.8771 13.183C49.6241 13.7173 49.4975 14.3218 49.4975 14.9967C49.4975 15.6575 49.6241 16.2551 49.8771 16.7893C50.1443 17.3236 50.5098 17.7454 50.9738 18.0547C51.4377 18.364 51.972 18.5187 52.5766 18.5187Z" fill="#333B47"/>
<path d="M68.0338 18.3079C68.3712 18.3079 68.6524 18.4203 68.8774 18.6453C69.1024 18.8562 69.2148 19.1304 69.2148 19.4678C69.2148 19.7912 69.1024 20.0653 68.8774 20.2903C68.6524 20.5153 68.3712 20.6277 68.0338 20.6277H61.243C60.8915 20.6277 60.6103 20.5012 60.3994 20.2481C60.1885 19.995 60.0901 19.7419 60.1041 19.4889C60.1182 19.278 60.1463 19.0952 60.1885 18.9406C60.2306 18.7719 60.3361 18.582 60.5049 18.3711L65.7561 11.5803L65.714 11.8756H61.4327C61.0953 11.8756 60.8141 11.7631 60.5892 11.5381C60.3642 11.3131 60.2518 11.032 60.2518 10.6945C60.2518 10.3711 60.3642 10.104 60.5892 9.89311C60.8141 9.66818 61.0953 9.55566 61.4327 9.55566H67.9284C68.2518 9.55566 68.5259 9.67519 68.7508 9.91424C68.9758 10.1532 69.0742 10.4555 69.0461 10.8211C69.0321 10.9616 69.0039 11.1022 68.9617 11.2429C68.9337 11.3834 68.8422 11.5522 68.6876 11.749L63.5206 18.4344V18.3079H68.0338Z" fill="#333B47"/>
<path d="M79.43 9.34473C79.7956 9.34473 80.0979 9.47127 80.337 9.72433C80.5759 9.96338 80.6954 10.2657 80.6954 10.6312V19.5943C80.6954 20.8877 80.4494 21.9142 79.9573 22.6733C79.4793 23.4467 78.8325 24.0021 78.0171 24.3394C77.2016 24.6768 76.2878 24.8456 75.2754 24.8456C74.8255 24.8456 74.3475 24.8105 73.8413 24.7402C73.3352 24.6698 72.9205 24.5644 72.5971 24.4238C72.1753 24.241 71.88 24.0091 71.7113 23.7278C71.5566 23.4607 71.5285 23.1725 71.6269 22.8632C71.7535 22.4554 71.9573 22.1743 72.2386 22.0196C72.5197 21.879 72.815 21.8649 73.1243 21.9774C73.3493 22.0477 73.6445 22.1531 74.01 22.2937C74.3756 22.4484 74.7974 22.5258 75.2754 22.5258C75.9222 22.5258 76.4565 22.4344 76.8783 22.2515C77.3141 22.0828 77.6374 21.7876 77.8483 21.3658C78.0734 20.9581 78.1858 20.3957 78.1858 19.6786V18.2657L78.6287 18.7718C78.3897 19.2358 78.0874 19.6224 77.7218 19.9317C77.3703 20.227 76.9485 20.4519 76.4565 20.6066C75.9644 20.7612 75.402 20.8385 74.7693 20.8385C74.0241 20.8385 73.3703 20.6698 72.808 20.3324C72.2596 19.9809 71.8308 19.5029 71.5215 18.8984C71.2121 18.2797 71.0575 17.5767 71.0575 16.7894V10.6312C71.0575 10.2657 71.1771 9.96338 71.416 9.72433C71.6551 9.47127 71.9573 9.34473 72.3228 9.34473C72.6884 9.34473 72.9907 9.47127 73.2298 9.72433C73.4687 9.96338 73.5882 10.2657 73.5882 10.6312V16.0301C73.5882 16.944 73.7851 17.5908 74.1788 17.9704C74.5865 18.3359 75.1489 18.5187 75.866 18.5187C76.358 18.5187 76.7728 18.4274 77.1102 18.2445C77.4477 18.0477 77.7078 17.7665 77.8905 17.4009C78.0734 17.0214 78.1647 16.5644 78.1647 16.0301V10.6312C78.1647 10.2657 78.2843 9.96338 78.5232 9.72433C78.7623 9.47127 79.0645 9.34473 79.43 9.34473Z" fill="#333B47"/>
<path d="M88.3517 9.13379C89.1531 9.13379 89.849 9.21815 90.4395 9.38687C91.0441 9.55557 91.5081 9.79462 91.8315 10.1039C92.1689 10.3992 92.3376 10.7577 92.3376 11.1795C92.3376 11.4607 92.2533 11.7278 92.0845 11.9809C91.9158 12.2199 91.6698 12.3395 91.3463 12.3395C91.1214 12.3395 90.9317 12.3113 90.777 12.2551C90.6364 12.1848 90.5099 12.1004 90.3973 12.002C90.2848 11.9035 90.1513 11.8122 89.9967 11.7278C89.856 11.6434 89.6381 11.5802 89.3428 11.538C89.0617 11.4817 88.8508 11.4537 88.7101 11.4537C87.9932 11.4537 87.3815 11.6083 86.8753 11.9177C86.3833 12.2269 86.0037 12.6487 85.7366 13.183C85.4694 13.7032 85.3358 14.3078 85.3358 14.9967C85.3358 15.6716 85.4694 16.2761 85.7366 16.8105C86.0177 17.3306 86.3973 17.7454 86.8753 18.0547C87.3675 18.364 87.9299 18.5187 88.5626 18.5187C88.914 18.5187 89.2163 18.4976 89.4694 18.4554C89.7225 18.4132 89.9334 18.35 90.1021 18.2656C90.299 18.1531 90.4747 18.0336 90.6294 17.907C90.784 17.7805 91.016 17.7173 91.3253 17.7173C91.6908 17.7173 91.972 17.8368 92.1689 18.0758C92.3657 18.3008 92.4642 18.5819 92.4642 18.9194C92.4642 19.2708 92.2673 19.5942 91.8736 19.8895C91.48 20.1707 90.9597 20.4027 90.313 20.5854C89.6803 20.7541 88.9914 20.8385 88.2463 20.8385C87.1354 20.8385 86.1724 20.5854 85.357 20.0793C84.5414 19.5591 83.9088 18.8561 83.4589 17.9704C83.023 17.0846 82.8051 16.0934 82.8051 14.9967C82.8051 13.8438 83.0371 12.8315 83.501 11.9598C83.979 11.0741 84.6329 10.3851 85.4624 9.89301C86.306 9.38687 87.2691 9.13379 88.3517 9.13379Z" fill="#333B47"/>
<path d="M95.5545 20.6276C95.1886 20.6276 94.8862 20.5081 94.6476 20.2691C94.4085 20.016 94.289 19.7068 94.289 19.3412V10.6311C94.289 10.2656 94.4085 9.96334 94.6476 9.72429C94.8862 9.47123 95.1886 9.34469 95.5545 9.34469C95.9204 9.34469 96.2218 9.47123 96.4616 9.72429C96.7005 9.96334 96.8199 10.2656 96.8199 10.6311V12.6136L96.672 11.2006C96.8265 10.8632 97.0237 10.5679 97.2626 10.3148C97.5156 10.0477 97.7972 9.82979 98.1062 9.66107C98.4152 9.47825 98.746 9.34469 99.0976 9.26033C99.4493 9.17597 99.8 9.13379 100.152 9.13379C100.573 9.13379 100.925 9.2533 101.207 9.49235C101.501 9.73131 101.649 10.0125 101.649 10.3359C101.649 10.7998 101.53 11.1373 101.291 11.3482C101.052 11.5451 100.791 11.6434 100.511 11.6434C100.244 11.6434 99.9971 11.5942 99.7725 11.4959C99.5611 11.3974 99.3156 11.3482 99.0341 11.3482C98.781 11.3482 98.5213 11.4115 98.254 11.538C98.0009 11.6505 97.7621 11.8333 97.5365 12.0864C97.3261 12.3395 97.1498 12.6558 97.0095 13.0354C96.8834 13.4009 96.8199 13.8368 96.8199 14.343V19.3412C96.8199 19.7068 96.7005 20.016 96.4616 20.2691C96.2218 20.5081 95.9204 20.6276 95.5545 20.6276Z" fill="#333B47"/>
<path d="M108.274 20.8385C107.08 20.8385 106.039 20.5924 105.153 20.1004C104.282 19.5942 103.607 18.9123 103.128 18.0547C102.664 17.1971 102.432 16.2269 102.432 15.1443C102.432 13.879 102.685 12.8033 103.191 11.9177C103.712 11.0178 104.387 10.3288 105.216 9.85083C106.046 9.3728 106.924 9.13379 107.852 9.13379C108.57 9.13379 109.245 9.28142 109.877 9.57671C110.524 9.87197 111.093 10.2796 111.586 10.7998C112.078 11.306 112.464 11.8965 112.745 12.5714C113.041 13.2463 113.188 13.9633 113.188 14.7226C113.174 15.0599 113.041 15.3341 112.788 15.545C112.535 15.7559 112.239 15.8614 111.901 15.8614H103.846L103.212 13.7524H110.953L110.489 14.1742V13.6048C110.461 13.1971 110.313 12.8315 110.046 12.5082C109.792 12.1848 109.469 11.9317 109.076 11.7489C108.696 11.5521 108.288 11.4537 107.852 11.4537C107.43 11.4537 107.037 11.5099 106.671 11.6224C106.306 11.7348 105.99 11.9247 105.722 12.1918C105.455 12.4589 105.245 12.8175 105.09 13.2673C104.936 13.7173 104.858 14.2867 104.858 14.9756C104.858 15.7348 105.012 16.3816 105.321 16.9159C105.646 17.436 106.053 17.8368 106.545 18.1179C107.051 18.3851 107.586 18.5187 108.148 18.5187C108.668 18.5187 109.082 18.4765 109.392 18.3922C109.701 18.3078 109.947 18.2093 110.13 18.0969C110.327 17.9704 110.502 17.8649 110.658 17.7805C110.911 17.654 111.15 17.5907 111.374 17.5907C111.683 17.5907 111.937 17.6961 112.134 17.907C112.345 18.1179 112.45 18.364 112.45 18.6452C112.45 19.0249 112.253 19.3693 111.86 19.6786C111.494 19.9879 110.981 20.2621 110.32 20.5011C109.659 20.7261 108.977 20.8385 108.274 20.8385Z" fill="#333B47"/>
<path d="M124.637 5.02148C125.002 5.02148 125.304 5.14099 125.543 5.38001C125.782 5.61902 125.901 5.92834 125.901 6.30795V19.3413C125.901 19.7069 125.782 20.0162 125.543 20.2693C125.304 20.5083 125.002 20.6278 124.637 20.6278C124.271 20.6278 123.969 20.5083 123.73 20.2693C123.491 20.0162 123.372 19.7069 123.372 19.3413V18.308L123.835 18.4977C123.835 18.6806 123.736 18.9055 123.54 19.1726C123.343 19.4257 123.076 19.6788 122.738 19.9319C122.401 20.1849 122 20.4028 121.536 20.5856C121.086 20.7543 120.594 20.8387 120.06 20.8387C119.09 20.8387 118.211 20.5926 117.424 20.1006C116.637 19.5944 116.01 18.9055 115.547 18.0337C115.097 17.1481 114.872 16.1357 114.872 14.9969C114.872 13.844 115.097 12.8317 115.547 11.96C116.01 11.0742 116.629 10.3853 117.403 9.89318C118.176 9.38704 119.034 9.13396 119.975 9.13396C120.58 9.13396 121.136 9.22535 121.642 9.40813C122.148 9.59091 122.584 9.82285 122.95 10.1041C123.329 10.3853 123.617 10.6735 123.814 10.9687C124.025 11.25 124.131 11.489 124.131 11.6858L123.372 11.96V6.30795C123.372 5.94239 123.491 5.64011 123.73 5.4011C123.969 5.14802 124.271 5.02148 124.637 5.02148ZM120.376 18.5189C120.995 18.5189 121.536 18.3642 122 18.0549C122.464 17.7456 122.823 17.3238 123.076 16.7895C123.343 16.2553 123.477 15.6576 123.477 14.9969C123.477 14.322 123.343 13.7174 123.076 13.1831C122.823 12.6489 122.464 12.2271 122 11.9178C121.536 11.6084 120.995 11.4538 120.376 11.4538C119.772 11.4538 119.238 11.6084 118.773 11.9178C118.31 12.2271 117.944 12.6489 117.677 13.1831C117.424 13.7174 117.298 14.322 117.298 14.9969C117.298 15.6576 117.424 16.2553 117.677 16.7895C117.944 17.3238 118.31 17.7456 118.773 18.0549C119.238 18.3642 119.772 18.5189 120.376 18.5189Z" fill="#333B47"/>
<path d="M131.026 19.3413C131.026 19.7069 130.905 20.0162 130.666 20.2693C130.427 20.5082 130.125 20.6278 129.76 20.6278C129.394 20.6278 129.092 20.5082 128.853 20.2693C128.614 20.0162 128.495 19.7069 128.495 19.3413V10.6313C128.495 10.2658 128.614 9.9635 128.853 9.72445C129.092 9.47139 129.394 9.34485 129.76 9.34485C130.125 9.34485 130.427 9.47139 130.666 9.72445C130.905 9.9635 131.026 10.2658 131.026 10.6313V19.3413ZM129.738 7.97402C129.261 7.97402 128.923 7.8967 128.726 7.74203C128.53 7.58738 128.431 7.31321 128.431 6.91954V6.51884C128.431 6.1111 128.536 5.83694 128.748 5.69635C128.973 5.54168 129.31 5.46436 129.76 5.46436C130.252 5.46436 130.596 5.54168 130.793 5.69635C130.99 5.851 131.088 6.12516 131.088 6.51884V6.91954C131.088 7.32727 130.983 7.60847 130.773 7.76312C130.561 7.90372 130.217 7.97402 129.738 7.97402Z" fill="#333B47"/>
<path d="M133.753 9.55562H138.751C139.088 9.55562 139.37 9.66814 139.594 9.89306C139.82 10.118 139.932 10.3992 139.932 10.7367C139.932 11.06 139.82 11.3342 139.594 11.5591C139.37 11.77 139.088 11.8755 138.751 11.8755H133.753C133.415 11.8755 133.134 11.763 132.909 11.5381C132.684 11.3131 132.572 11.0319 132.572 10.6945C132.572 10.3711 132.684 10.104 132.909 9.89306C133.134 9.66814 133.415 9.55562 133.753 9.55562ZM136.009 6.91943C136.374 6.91943 136.67 7.04597 136.895 7.29904C137.134 7.53806 137.253 7.84034 137.253 8.2059V17.5908C137.253 17.7877 137.289 17.9493 137.359 18.0758C137.444 18.2024 137.549 18.2937 137.675 18.35C137.816 18.4062 137.964 18.4344 138.118 18.4344C138.287 18.4344 138.442 18.4062 138.582 18.35C138.723 18.2797 138.884 18.2445 139.067 18.2445C139.264 18.2445 139.44 18.3359 139.594 18.5188C139.763 18.7015 139.847 18.9546 139.847 19.278C139.847 19.6716 139.629 19.995 139.193 20.248C138.772 20.5011 138.315 20.6277 137.823 20.6277C137.528 20.6277 137.197 20.6066 136.832 20.5644C136.481 20.5081 136.143 20.3887 135.82 20.2059C135.51 20.0091 135.25 19.7138 135.039 19.3202C134.828 18.9264 134.723 18.3852 134.723 17.6962V8.2059C134.723 7.84034 134.843 7.53806 135.082 7.29904C135.335 7.04597 135.644 6.91943 136.009 6.91943Z" fill="#333B47"/>
<path fill-rule="evenodd" clip-rule="evenodd" d="M22.3706 19.9771C22.1144 20.3572 21.8449 20.7439 21.4792 21.1275C16.2982 26.5612 6.20826 24.5305 4.67062 15.971C3.77738 10.9986 6.77928 7.04503 9.84691 5.5346C14.1885 3.39695 19.8602 4.85275 21.4392 7.60582C20.9642 8.50361 17.3771 11.8384 16.1659 13.0553C15.4066 13.8103 14.9939 14.4233 14.2148 14.733L9.99904 10.4389L9.99402 10.444C9.6035 10.0931 9.08711 9.87949 8.52082 9.87949C7.30298 9.87949 6.31571 10.8668 6.31571 12.0846C6.31571 12.6694 6.54337 13.2008 6.91478 13.5954L6.91031 13.6001L12.7917 19.5069C13.1601 19.9455 13.7123 20.2243 14.3298 20.2243C14.9044 20.2243 15.4226 19.983 15.7885 19.5961H15.7902L25.6556 9.74073L25.6586 9.7213C26.179 9.2443 26.508 8.54298 26.508 7.761C26.508 7.27258 26.3795 6.8156 26.1564 6.42509L26.1581 6.41334C25.2216 4.99274 24.1587 3.84691 22.7894 2.83854C15.8425 -2.2772 6.68646 0.256977 2.55629 6.33264C-3.98063 15.9488 3.22847 28.4771 14.2649 28.4824C17.7634 28.4841 19.8247 27.6512 22.0749 26.2452C23.2611 25.504 25.0765 23.8538 26.1321 22.3354L26.1051 22.3185C26.3668 21.9559 26.5211 21.5106 26.5211 21.0293C26.5211 19.8115 25.5338 18.8242 24.3161 18.8242C23.4779 18.8242 22.7489 19.2919 22.3759 19.9804L22.3706 19.9771Z" fill="#069AFF"/>
<path fill-rule="evenodd" clip-rule="evenodd" d="M21.3686 7.72352C20.6849 8.76358 17.3296 11.8865 16.166 13.0554C15.4068 13.8104 14.994 14.4235 14.2149 14.733L9.99918 10.4391L9.99416 10.4442C9.60364 10.0932 9.08723 9.87966 8.52091 9.87966C7.30304 9.87966 6.3158 10.867 6.3158 12.0848C6.3158 12.6695 6.54346 13.2009 6.91487 13.5956L6.9104 13.6002L12.7919 19.5071C13.1601 19.9456 13.7125 20.2245 14.33 20.2245C14.9045 20.2245 15.4226 19.9831 15.7886 19.5962H15.7904L25.6558 9.74089L25.6587 9.72146C26.1792 9.24447 26.5081 8.54313 26.5081 7.76115C26.5081 7.27269 26.3797 6.81573 26.1564 6.42525L26.1582 6.41349C25.7302 5.76409 25.2756 5.17219 24.7775 4.62451L21.3686 7.72352Z" fill="#069AFF"/>
</g>
<defs>
<clipPath id="clip0_1509_8955">
<rect width="140" height="28.5308" fill="white"/>
</clipPath>
</defs>
</svg>
